<svg width="297" height="321" viewBox="0 0 297 321" fill="none" xmlns="http://www.w3.org/2000/svg">
<g clip-path="url(#clip0_21_1032)">
<rect width="297" height="321" fill="white"/>
<path d="M297 0H0V321H297V0Z" fill="white"/>
<path d="M148.5 277.986C208.534 277.986 257.202 225.386 257.202 160.5C257.202 95.6143 208.534 43.014 148.5 43.014C88.4655 43.014 39.798 95.6143 39.798 160.5C39.798 225.386 88.4655 277.986 148.5 277.986Z" fill="#B2B2B2"/>
<path d="M60.7526 64.2465L79.3499 63.869L70.2695 88.3098L60.7526 64.2465Z" fill="#D3BBA3"/>
<path d="M99.2476 73.0067C99.2473 73.0067 99.2471 73.0067 99.2467 73.0067L43.0571 72.8085C42.931 72.8079 42.8233 72.7106 42.8002 72.5768C42.7774 72.443 42.8457 72.3103 42.9634 72.2613L71.0941 60.5075C71.1555 60.4818 71.2235 60.4823 71.2844 60.508L99.3434 72.4601C99.4608 72.5102 99.5284 72.6431 99.5049 72.7769C99.481 72.9103 99.3731 73.0067 99.2476 73.0067ZM44.4501 72.2473L97.857 72.4356L71.1875 61.0754L44.4501 72.2473Z" fill="#D3BBA3"/>
<path d="M71.1906 60.9406C71.1903 60.9406 71.1901 60.9406 71.1899 60.9406C71.045 60.9401 70.9281 60.8128 70.9287 60.6567L70.9523 52.8316C70.9525 52.7563 70.9804 52.6844 71.0295 52.6317C71.0787 52.5789 71.1451 52.5492 71.2142 52.5492C71.2198 52.5512 71.2231 52.5492 71.2275 52.5492C72.1858 52.5492 73.0871 52.1475 73.7672 51.4174C74.4504 50.684 74.8282 49.7068 74.8313 48.6663C74.8377 46.5182 73.226 44.7649 71.2387 44.7579C71.2346 44.7579 71.2303 44.7579 71.2265 44.7579C69.2445 44.7579 67.6289 46.4969 67.6223 48.6409C67.6218 48.797 67.5047 48.9231 67.3603 48.9231C67.3601 48.9231 67.3599 48.9231 67.3595 48.9231C67.2147 48.9226 67.0978 48.7953 67.0984 48.6392C67.1061 46.1837 68.9565 44.1917 71.2261 44.1917C71.231 44.1917 71.2356 44.1917 71.2401 44.1917C73.5164 44.1998 75.3625 46.2077 75.3551 48.668C75.3515 49.8598 74.9188 50.9789 74.1365 51.8188C73.4164 52.592 72.4794 53.0435 71.4752 53.1077L71.4524 60.6582C71.4519 60.8145 71.3348 60.9406 71.1906 60.9406Z" fill="#D3BBA3"/>
<path d="M61.0145 63.7746L71.1426 85.4788L78.8259 62.831L86.5093 66.2281L88.2556 88.876L89.1286 119.073L73.2381 118.507L70.7934 112.279L65.5547 118.507L48.4418 117.752L51.7596 87.5549L53.5057 66.4168L61.0145 63.7746Z" fill="#E6D0BE"/>
<path d="M70.793 112.562C70.6529 112.562 70.5364 112.442 70.5316 112.289L69.7458 88.3672C69.7445 88.3327 69.7494 88.2981 69.7598 88.2652L71.2442 83.594C71.291 83.4464 71.4386 83.3673 71.577 83.4185C71.7139 83.4691 71.7864 83.6303 71.7394 83.7782L70.2709 88.3995L71.0549 112.269C71.06 112.425 70.9472 112.556 70.8024 112.562C70.7994 112.562 70.7964 112.562 70.793 112.562Z" fill="#B2B2B2"/>
<path d="M72.2121 89.0884C72.2121 89.5184 71.8896 89.8669 71.4918 89.8669C71.094 89.8669 70.7715 89.5183 70.7715 89.0884C70.7715 88.6584 71.0941 88.3099 71.4918 88.3099C71.8897 88.3098 72.2121 88.6584 72.2121 89.0884Z" fill="#84524D"/>
<path d="M72.3432 94.892C72.3432 95.322 72.0206 95.6705 71.6229 95.6705C71.225 95.6705 70.9026 95.3219 70.9026 94.892C70.9026 94.462 71.2251 94.1135 71.6229 94.1135C72.0206 94.1134 72.3432 94.462 72.3432 94.892Z" fill="#84524D"/>
<path d="M72.5395 99.7754C72.5395 100.205 72.217 100.554 71.8192 100.554C71.4214 100.554 71.0989 100.205 71.0989 99.7754C71.0989 99.3454 71.4215 98.9969 71.8192 98.9969C72.2171 98.9968 72.5395 99.3454 72.5395 99.7754Z" fill="#84524D"/>
<path d="M72.6706 105.579C72.6706 106.009 72.348 106.357 71.9503 106.357C71.5524 106.357 71.23 106.009 71.23 105.579C71.23 105.149 71.5525 104.8 71.9503 104.8C72.348 104.8 72.6706 105.149 72.6706 105.579Z" fill="#84524D"/>
<path d="M53.7677 105.862C53.6927 105.862 53.6208 105.827 53.5709 105.766C53.5162 105.699 53.4942 105.607 53.5115 105.52L53.7735 104.198C53.7975 104.077 53.8922 103.987 54.0066 103.976L61.9521 103.221C62.0918 103.206 62.2147 103.314 62.2344 103.463L62.4088 104.784C62.4191 104.861 62.3993 104.94 62.3543 105C62.3093 105.062 62.243 105.1 62.1711 105.106L53.7893 105.861C53.7822 105.862 53.7748 105.862 53.7677 105.862ZM54.2453 104.521L54.0977 105.265L61.8511 104.567L61.7508 103.808L54.2453 104.521Z" fill="#B2B2B2"/>
<path d="M97.6851 63.6802C101.5 53.8698 119.6 56.2253 123.18 63.7746L97.6851 63.6802Z" fill="#B2B2B2"/>
<path d="M99.9185 129.31H119.412V62.5828L116.775 60.8113H103.497L99.9185 62.5828V129.31Z" fill="#E6D0BE"/>
<path d="M138.088 73.0067C138.087 73.0067 138.086 73.0067 138.086 73.0067L85.1106 72.5977C84.9865 72.597 84.8801 72.5021 84.8555 72.3705C84.8309 72.2391 84.8952 72.1073 85.0092 72.0545L109.926 60.5113C109.989 60.4823 110.061 60.4812 110.125 60.508L138.184 72.4601C138.301 72.5102 138.369 72.6433 138.345 72.7775C138.321 72.9108 138.213 73.0067 138.088 73.0067ZM86.3672 72.0414L136.683 72.4298L110.033 61.0777L86.3672 72.0414Z" fill="#D3BBA3"/>
<path d="M110.031 60.9406C110.03 60.9406 110.03 60.9406 110.03 60.9406C109.885 60.9401 109.768 60.8128 109.769 60.6567L109.793 52.8316C109.793 52.7564 109.821 52.6845 109.87 52.6317C109.919 52.5789 109.986 52.5372 110.055 52.5492C110.06 52.5492 110.064 52.5492 110.068 52.5492C111.026 52.5492 111.927 52.1475 112.608 51.4174C113.291 50.684 113.668 49.7069 113.671 48.6663C113.675 47.6258 113.303 46.6459 112.624 45.9078C111.946 45.1696 111.042 44.7613 110.079 44.7579C110.075 44.7579 110.07 44.7579 110.066 44.7579C109.108 44.7579 108.207 45.1597 107.527 45.8898C106.844 46.6232 106.466 47.6003 106.463 48.6409C106.462 48.797 106.345 48.9231 106.201 48.9231C106.201 48.9231 106.2 48.9231 106.2 48.9231C106.055 48.9226 105.938 48.7953 105.939 48.6392C105.943 47.4474 106.375 46.3283 107.158 45.4884C107.936 44.6519 108.969 44.1918 110.067 44.1918C110.071 44.1918 110.076 44.1918 110.081 44.1918C111.183 44.1957 112.219 44.6634 112.996 45.509C113.773 46.3543 114.199 47.4763 114.195 48.6681C114.192 49.8599 113.759 50.979 112.977 51.8189C112.257 52.5921 111.32 53.0438 110.316 53.1078L110.293 60.6584C110.292 60.8145 110.175 60.9406 110.031 60.9406Z" fill="#D3BBA3"/>
<path d="M150.381 126.731L140.031 80.5293C138.641 74.3265 134.648 69.1829 129.237 66.6268L116.856 60.7774V132.296H134.811L130.289 94.0259L140.085 129.717L150.381 126.731Z" fill="#E6D0BE"/>
<path d="M70.0295 126.731L80.2401 81.1541C81.7179 74.5576 85.9646 69.0877 91.7184 66.3692L103.554 60.7772V132.296H85.5991L90.1219 94.0258L80.3254 129.717L70.0295 126.731Z" fill="#D3BBA3"/>
<path d="M103.448 84.3465L97.6851 63.6802C98.1932 62.151 101.084 61.359 103.971 60.5662L103.448 84.3465Z" fill="#B2B2B2"/>
<path d="M116.893 86.0451L116.856 60.7772C119.045 60.9118 121.22 61.1947 123.18 63.7746C122.035 70.4451 119.559 78.1697 116.893 86.0451Z" fill="#B2B2B2"/>
<path d="M161.842 72.9868C161.84 72.9868 161.838 72.9868 161.836 72.9868L111.312 72.8085C111.186 72.8079 111.078 72.7106 111.055 72.5768C111.032 72.443 111.101 72.3103 111.218 72.2613L139.349 60.5075C139.411 60.4818 139.478 60.4823 139.539 60.508L162.328 70.2149C163.036 70.5168 163.249 71.2391 163.146 71.8212C163.042 72.4022 162.599 72.9868 161.842 72.9868ZM112.705 72.2473L161.838 72.4207C161.839 72.4207 161.84 72.4207 161.841 72.4207C162.331 72.4207 162.573 72.0409 162.631 71.7149C162.689 71.3881 162.594 70.9372 162.136 70.742L139.442 61.0754L112.705 72.2473Z" fill="#D3BBA3"/>
<path d="M139.445 60.9406C139.445 60.9406 139.445 60.9406 139.445 60.9406C139.3 60.9401 139.183 60.8129 139.184 60.6567L139.207 52.8316C139.208 52.6755 139.325 52.5494 139.469 52.5494C139.475 52.5502 139.478 52.5494 139.482 52.5494C140.472 52.5494 141.394 52.1248 142.081 51.3531C142.77 50.5785 143.126 49.5589 143.083 48.4821C143.004 46.4946 141.503 44.861 139.664 44.7629C138.671 44.7089 137.722 45.088 137.001 45.8273C136.28 46.5671 135.881 47.5665 135.877 48.6412C135.877 48.7973 135.76 48.9234 135.616 48.9234C135.615 48.9234 135.615 48.9234 135.615 48.9234C135.47 48.9229 135.353 48.7957 135.354 48.6395C135.358 47.4087 135.815 46.2641 136.641 45.4166C137.467 44.5698 138.555 44.1409 139.69 44.1974C141.796 44.3099 143.516 46.1813 143.607 48.458C143.655 49.691 143.248 50.8585 142.459 51.7456C141.73 52.5648 140.77 53.0422 139.731 53.1081L139.708 60.6587C139.707 60.8145 139.59 60.9406 139.445 60.9406Z" fill="#D3BBA3"/>
<path d="M170.588 167.693C170.443 167.693 170.326 167.567 170.326 167.41V155.526C170.326 151.259 166.708 147.788 162.26 147.788H53.118C48.67 147.788 45.0512 151.259 45.0512 155.526V167.41C45.0512 167.567 44.9341 167.693 44.7892 167.693C44.6444 167.693 44.5273 167.567 44.5273 167.41V155.526C44.5273 150.947 48.381 147.222 53.1178 147.222H162.26C166.996 147.222 170.85 150.947 170.85 155.526V167.41C170.85 167.567 170.733 167.693 170.588 167.693Z" fill="#E6D0BE"/>
<path d="M171.366 172.078C173.613 171.684 175.139 169.395 174.774 166.967C174.409 164.538 172.292 162.889 170.045 163.283C167.798 163.677 166.272 165.965 166.637 168.394C167.001 170.823 169.119 172.472 171.366 172.078Z" fill="#E6D0BE"/>
<path d="M47.7026 171.827C49.3123 170.087 49.3123 167.266 47.7026 165.526C46.0929 163.787 43.4831 163.787 41.8734 165.526C40.2638 167.266 40.2638 170.087 41.8735 171.827C43.4831 173.566 46.0929 173.566 47.7026 171.827Z" fill="#E6D0BE"/>
<path d="M157.128 167.693C156.984 167.693 156.867 167.567 156.867 167.41V155.526C156.867 151.259 154.031 147.788 150.545 147.788H64.268C60.782 147.788 57.946 151.259 57.946 155.526V167.41C57.946 167.567 57.8289 167.693 57.6841 167.693C57.5393 167.693 57.4221 167.567 57.4221 167.41V155.526C57.4221 150.947 60.4932 147.222 64.268 147.222H150.545C154.319 147.222 157.39 150.947 157.39 155.526V167.41C157.39 167.567 157.273 167.693 157.128 167.693Z" fill="#E6D0BE"/>
<path d="M158.188 172.001C160.403 171.435 161.775 169.036 161.252 166.642C160.729 164.247 158.509 162.764 156.293 163.33C154.078 163.895 152.706 166.295 153.229 168.689C153.752 171.083 155.972 172.566 158.188 172.001Z" fill="#E6D0BE"/>
<path d="M58.6513 173.002C60.8668 172.436 62.2387 170.037 61.7155 167.642C61.1924 165.248 58.9723 163.765 56.7569 164.331C54.5415 164.896 53.1696 167.295 53.6927 169.69C54.2158 172.084 56.4359 173.567 58.6513 173.002Z" fill="#E6D0BE"/>
<path d="M155.39 147.788C155.245 147.788 155.128 147.661 155.128 147.505V46.1755H47.3268V147.505C47.3268 147.661 47.2097 147.788 47.0649 147.788C46.9201 147.788 46.8029 147.661 46.8029 147.505V45.8923C46.8029 45.7358 46.9201 45.6092 47.0649 45.6092H155.39C155.535 45.6092 155.652 45.7358 155.652 45.8923V147.505C155.652 147.661 155.535 147.788 155.39 147.788Z" fill="#E6D0BE"/>
<path d="M71.1805 60.9406C71.1803 60.9406 71.1801 60.9406 71.1798 60.9406C71.035 60.9401 70.9181 60.8128 70.9187 60.6567L70.9425 52.8316C70.9427 52.7564 70.9706 52.6845 71.0197 52.6317C71.0688 52.5789 71.1353 52.5492 71.2044 52.5492C71.2106 52.5512 71.2133 52.5492 71.2177 52.5492C72.176 52.5492 73.0773 52.1475 73.7575 51.4174C74.4405 50.684 74.8183 49.7069 74.8214 48.6663C74.8247 47.6258 74.4528 46.6459 73.7742 45.9078C73.0956 45.1696 72.1915 44.7613 71.2288 44.7579C71.084 44.7574 70.9671 44.6302 70.9676 44.474C70.9682 44.3179 71.0853 44.1918 71.2296 44.1918C71.2298 44.1918 71.2301 44.1918 71.2304 44.1918C72.3331 44.1957 73.3686 44.6634 74.1457 45.509C74.9231 46.3543 75.3489 47.4763 75.3453 48.6681C75.3417 49.8599 74.909 50.979 74.1267 51.8189C73.4066 52.5921 72.4699 53.0438 71.4657 53.1078L71.4426 60.6584C71.4419 60.8145 71.3248 60.9406 71.1805 60.9406Z" fill="#D3BBA3"/>
<path d="M110.031 60.9406C110.03 60.9406 110.03 60.9406 110.03 60.9406C109.885 60.9401 109.768 60.8128 109.769 60.6567L109.793 52.8316C109.793 52.7564 109.821 52.6845 109.87 52.6317C109.919 52.5789 109.986 52.5372 110.055 52.5492C110.06 52.5492 110.064 52.5492 110.068 52.5492C111.026 52.5492 111.927 52.1475 112.608 51.4174C113.291 50.684 113.668 49.7069 113.671 48.6663C113.675 47.6258 113.303 46.6459 112.624 45.9078C111.946 45.1696 111.042 44.7613 110.079 44.7579C109.934 44.7574 109.817 44.6302 109.818 44.474C109.818 44.3179 109.935 44.1918 110.08 44.1918C110.08 44.1918 110.08 44.1918 110.08 44.1918C111.183 44.1957 112.219 44.6634 112.996 45.509C113.773 46.3543 114.199 47.4763 114.195 48.6681C114.192 49.8599 113.759 50.979 112.977 51.8189C112.257 52.5921 111.32 53.0438 110.316 53.1078L110.293 60.6584C110.292 60.8145 110.175 60.9406 110.031 60.9406Z" fill="#D3BBA3"/>
<path d="M125.769 65.4496C134.834 56.3614 144.034 56.4427 153.364 65.3788L125.769 65.4496Z" fill="#D3BBA3"/>
<path d="M139.442 60.9406C139.441 60.9406 139.441 60.9406 139.441 60.9406C139.296 60.9401 139.179 60.8128 139.18 60.6567L139.203 52.8316C139.204 52.7564 139.231 52.6845 139.281 52.6317C139.33 52.5789 139.396 52.5492 139.465 52.5492C139.469 52.5512 139.474 52.5492 139.479 52.5492C140.437 52.5492 141.338 52.1475 142.018 51.4174C142.702 50.684 143.079 49.7069 143.083 48.6663C143.089 46.5182 141.477 44.7649 139.49 44.7579C139.345 44.7574 139.228 44.6302 139.229 44.474C139.229 44.3179 139.346 44.1918 139.491 44.1918C139.491 44.1918 139.491 44.1918 139.491 44.1918C141.768 44.1999 143.614 46.2078 143.606 48.6681C143.603 49.8599 143.17 50.979 142.388 51.8189C141.668 52.5921 140.731 53.0436 139.727 53.1078L139.704 60.6584C139.703 60.8145 139.586 60.9406 139.442 60.9406Z" fill="#D3BBA3"/>
<path d="M113.532 82.2232L115.091 134.172L121.967 134.067L121.65 145.873L158.763 143.986L157.964 133.521L164.842 133.417L165.002 85.1957C165.068 82.7086 163.935 71.323 162.122 70.0499C144.938 57.978 130.372 61.06 116.284 70.5991C114.364 71.8995 113.45 79.6126 113.532 82.2232Z" fill="#D3BBA3"/>
<path d="M132.368 63.7746L140.207 90.952L145.806 63.2084C140.793 62.7739 136.134 62.4422 132.368 63.7746Z" fill="#E6D0BE"/>
<path d="M141.326 133.323C141.185 133.323 141.068 133.201 141.064 133.048L139.945 90.9601C139.941 90.8038 140.055 90.6736 140.199 90.669C140.336 90.6693 140.465 90.7877 140.469 90.9441L141.588 133.032C141.592 133.188 141.478 133.318 141.334 133.323C141.331 133.323 141.329 133.323 141.326 133.323Z" fill="#B2B2B2"/>
<path d="M122.13 133.889C121.988 133.889 121.871 133.766 121.868 133.612L121.069 92.8709L116.874 70.6729C116.845 70.5197 116.937 70.3701 117.078 70.3389C117.219 70.3077 117.358 70.4063 117.387 70.5595L121.587 92.7827C121.59 92.7993 121.592 92.8165 121.592 92.8333L122.392 133.6C122.395 133.756 122.28 133.885 122.136 133.889C122.134 133.889 122.132 133.889 122.13 133.889Z" fill="#B2B2B2"/>
<path d="M157.484 132.945C157.48 132.945 157.477 132.945 157.474 132.945C157.329 132.939 157.216 132.808 157.222 132.652L158.661 90.5642C158.662 90.552 158.663 90.5402 158.665 90.5283L161.744 70.5698C161.768 70.4155 161.903 70.3097 162.046 70.337C162.188 70.3627 162.285 70.5087 162.261 70.6626L159.184 90.6034L157.745 132.673C157.74 132.825 157.624 132.945 157.484 132.945Z" fill="#B2B2B2"/>
<path d="M140.206 91.2351C140.149 91.2351 140.092 91.215 140.044 91.1735C139.93 91.0759 139.912 90.8978 140.002 90.7757L150.515 76.5218L148.253 75.354C148.188 75.3206 148.138 75.2597 148.116 75.1856C148.094 75.1118 148.101 75.0311 148.135 74.9629L152.614 66.0925C152.684 65.9556 152.843 65.9048 152.97 65.9798C153.097 66.0546 153.144 66.2267 153.074 66.3641L148.728 74.972L151.038 76.1643C151.11 76.2017 151.162 76.2722 151.18 76.3561C151.198 76.4405 151.179 76.5286 151.13 76.5961L140.412 91.1284C140.36 91.1987 140.283 91.2351 140.206 91.2351Z" fill="#B2B2B2"/>
<path d="M138.127 87.0832C138.059 87.0832 137.991 87.0547 137.94 86.9978L127.382 75.2962C127.323 75.231 127.297 75.1394 127.311 75.0499C127.326 74.96 127.379 74.8835 127.455 74.844L130.066 73.4747L126.23 67.1384C126.151 67.0073 126.185 66.8321 126.306 66.7464C126.427 66.6608 126.589 66.6978 126.668 66.8282L130.668 73.4338C130.709 73.5021 130.721 73.5858 130.701 73.6644C130.681 73.7429 130.631 73.8082 130.563 73.8435L128.01 75.1822L138.315 86.6026C138.416 86.7146 138.414 86.8937 138.31 87.0029C138.259 87.0564 138.193 87.0832 138.127 87.0832Z" fill="#B2B2B2"/>
<path d="M114.842 128.51C114.699 128.51 114.582 128.386 114.58 128.231C114.485 121.577 114.233 114.653 113.99 107.957C113.462 93.4427 112.964 79.734 114.325 73.5235C114.358 73.3712 114.499 73.2768 114.64 73.3134C114.781 73.3494 114.868 73.5019 114.835 73.6541C113.491 79.789 113.987 93.4604 114.513 107.934C114.757 114.634 115.008 121.562 115.104 128.222C115.106 128.379 114.99 128.507 114.846 128.51C114.844 128.51 114.843 128.51 114.842 128.51Z" fill="#B2B2B2"/>
<path d="M105.868 202.79L104.772 192.773H67.6256C67.6256 192.773 62.2303 209.168 60.9339 214.76C60.1555 218.117 59.4295 222.201 58.7537 226.805C66.633 239.239 76.6667 249.953 88.2738 258.318C88.8411 252.916 89.8461 243.194 89.975 242.17C90.348 243.133 94.1457 255.905 96.4619 263.672C108.133 270.563 121.102 275.208 134.871 277.07C128.43 259.306 105.868 202.79 105.868 202.79Z" fill="#004053"/>
<path d="M89.9753 242.43C89.962 242.43 89.9482 242.429 89.9346 242.427C89.7916 242.403 89.6939 242.258 89.7162 242.104L92.0477 225.993C92.07 225.839 92.2045 225.734 92.347 225.757C92.49 225.781 92.5877 225.926 92.5655 226.08L90.2339 242.191C90.2137 242.33 90.1021 242.43 89.9753 242.43Z" fill="white"/>
<path d="M75.2564 129.685C83.3672 121.35 95.877 122.696 107.627 128.953L75.2564 129.685Z" fill="#006272"/>
<path d="M54.5339 147.983C54.5339 147.983 56.3139 128.54 85.391 128.278C93.1181 128.208 100.416 128.424 106.923 128.771C109.767 128.923 113.508 134.549 116.02 134.738C128.35 135.667 137.826 138.277 137.826 138.277L142.083 147.336L115.022 158.908L112.671 160.477L111.961 212.246L103.97 214.881L98.2814 202.878L90.1549 215.76L60.3577 211.661L64.2409 161.486L54.5339 147.983Z" fill="#006272"/>
<path d="M97.4688 166.135L84.4405 127.809L97.8752 128.221L97.4688 166.135Z" fill="white"/>
<path d="M98.4773 203.444C98.3325 203.444 98.2154 203.317 98.2154 203.161V171.779L96.7629 169.291V169.258C96.2332 168.025 83.5638 146.135 76.878 134.629L76.634 134.209L80.4203 134.098L77.8401 128.377C77.7766 128.236 77.8306 128.066 77.9605 127.998C78.0918 127.929 78.2476 127.988 78.3108 128.128L81.2475 134.64L77.5657 134.748C86.2504 149.696 96.4133 167.272 97.2336 169.066L97.2464 169.058L98.7393 171.615V203.16C98.7393 203.317 98.6221 203.444 98.4773 203.444Z" fill="#004053"/>
<path d="M98.2816 171.98C98.261 171.98 98.2397 171.978 98.2187 171.972C98.0782 171.935 97.9924 171.781 98.027 171.63L106.572 134.144L102.785 134.575L102.997 127.224C103.001 127.068 103.125 126.951 103.267 126.949C103.412 126.954 103.525 127.085 103.521 127.241L103.327 133.944L107.259 133.496L98.5355 171.765C98.5063 171.894 98.3994 171.98 98.2816 171.98Z" fill="#004053"/>
<path d="M158.003 95.5937C157.168 95.2329 156.105 95.8405 155.882 96.0237C155.819 95.1328 155.45 94.2529 154.453 93.884C153.569 93.5565 152.528 94.3731 152.44 94.4499C152.416 94.3314 152.679 93.1168 151.469 92.4061C150.651 91.9259 149.683 92.3175 149.409 92.5199C149.354 92.3844 149.039 91.3756 148.087 91.08C145.487 90.2724 143.139 96.6274 141.043 105.392C136.639 123.808 135.797 134.877 135.753 135.059C134.941 138.316 149.428 137.236 154.275 140.114C154.349 139.691 156.517 134.84 157.024 108.129C157.077 105.341 158.637 100.317 159.056 98.4584C159.284 97.4449 159.088 96.0626 158.003 95.5937Z" fill="#BC8271"/>
<path d="M143.579 99.5272C142.162 91.2828 140.343 90.8101 139.525 91.3499C136.746 93.1827 139.793 113.213 139.793 113.213C139.793 113.213 141.957 105.629 143.579 99.5272Z" fill="#BC8271"/>
<path d="M144.467 151.35C160.72 145.787 157.694 126.48 157.318 113.222L138.285 111.146L135.257 131.441L144.467 151.35Z" fill="white"/>
<path d="M112.671 160.477L107.627 128.953L135.257 131.441L145.488 150.969L112.671 160.477Z" fill="white"/>
<path d="M156.358 120.3C156.35 120.3 156.342 120.3 156.333 120.299L137.911 118.411C137.767 118.396 137.661 118.258 137.675 118.103C137.689 117.947 137.814 117.828 137.96 117.848L156.383 119.735C156.527 119.75 156.633 119.888 156.619 120.044C156.606 120.19 156.492 120.3 156.358 120.3Z" fill="#E6D0BE"/>
<path d="M137.801 101.202C132.913 106.862 133.415 113.595 133.946 120.724C134.42 127.094 134.959 134.314 132.124 142.74C128.588 153.254 122.436 158.018 116.486 162.626C110.367 167.363 104.588 171.838 103.209 181.676C102.054 189.919 104.393 199.569 109.625 208.151C114.754 216.562 121.808 222.337 128.495 223.597C131.019 224.073 133.237 223.872 135.195 223.694C137.968 223.441 140.159 223.243 142.791 224.775C146.904 227.17 149.719 232.454 151.157 240.481L155.272 239.62C153.583 230.194 150.053 223.858 144.779 220.788C141.048 218.616 137.894 218.903 134.843 219.18C132.973 219.35 131.207 219.51 129.215 219.135C123.645 218.085 117.63 213.047 113.125 205.658C108.523 198.111 106.366 189.4 107.353 182.355C108.467 174.407 113.083 170.833 118.927 166.307C125.094 161.532 132.083 156.119 136.063 144.288C139.209 134.934 138.607 126.853 138.123 120.36C137.61 113.47 137.239 108.491 140.864 104.293C143.822 100.869 148.499 99.0452 154.826 98.83C154.447 97.3909 154.169 95.9189 154.033 94.3483C146.857 94.7239 141.42 97.012 137.801 101.202Z" fill="#EFBC73"/>
<path d="M152.298 238.777C152.18 238.777 152.073 238.69 152.044 238.561C152.009 238.409 152.096 238.256 152.236 238.219L154.659 237.582C154.798 237.544 154.941 237.638 154.975 237.79C155.01 237.942 154.924 238.095 154.783 238.132L152.36 238.769C152.339 238.774 152.318 238.777 152.298 238.777Z" fill="white"/>
<path d="M152.778 237.078C152.663 237.078 152.558 236.996 152.526 236.87C152.487 236.72 152.569 236.564 152.709 236.522L154.455 236.003C154.592 235.961 154.739 236.05 154.777 236.201C154.815 236.352 154.733 236.508 154.594 236.549L152.848 237.068C152.824 237.075 152.801 237.078 152.778 237.078Z" fill="white"/>
<path d="M152.516 235.663C152.401 235.663 152.296 235.58 152.264 235.455C152.225 235.304 152.307 235.148 152.447 235.107L154.193 234.588C154.33 234.546 154.477 234.635 154.515 234.786C154.553 234.936 154.472 235.092 154.332 235.134L152.586 235.653C152.563 235.659 152.539 235.663 152.516 235.663Z" fill="white"/>
<path d="M151.992 234.247C151.877 234.247 151.772 234.165 151.74 234.039C151.702 233.889 151.783 233.733 151.923 233.691L153.669 233.172C153.807 233.13 153.953 233.219 153.991 233.37C154.03 233.521 153.948 233.677 153.808 233.718L152.062 234.237C152.039 234.244 152.015 234.247 151.992 234.247Z" fill="white"/>
<path d="M146.882 225.747C146.785 225.747 146.693 225.689 146.647 225.588C146.583 225.448 146.636 225.278 146.766 225.209L148.613 224.226C148.743 224.158 148.9 224.215 148.964 224.355C149.028 224.496 148.975 224.665 148.845 224.734L146.997 225.718C146.96 225.737 146.921 225.747 146.882 225.747Z" fill="white"/>
<path d="M150.025 230.478C149.922 230.478 149.823 230.411 149.782 230.3C149.728 230.155 149.793 229.99 149.928 229.932L151.84 229.101C151.974 229.043 152.127 229.113 152.181 229.258C152.235 229.403 152.17 229.568 152.036 229.627L150.123 230.457C150.091 230.471 150.058 230.478 150.025 230.478Z" fill="white"/>
<path d="M149.58 229.117C149.479 229.117 149.383 229.053 149.34 228.947C149.282 228.804 149.342 228.637 149.475 228.574L151.135 227.792C151.268 227.729 151.423 227.796 151.48 227.938C151.538 228.082 151.477 228.249 151.344 228.311L149.684 229.093C149.65 229.109 149.615 229.117 149.58 229.117Z" fill="white"/>
<path d="M148.195 226.532C148.101 226.532 148.01 226.477 147.963 226.382C147.895 226.243 147.944 226.072 148.072 225.999L149.49 225.186C149.618 225.112 149.777 225.165 149.845 225.303C149.912 225.442 149.863 225.613 149.736 225.686L148.317 226.499C148.278 226.521 148.236 226.532 148.195 226.532Z" fill="white"/>
<path d="M148.875 227.796C148.774 227.796 148.678 227.733 148.635 227.626C148.577 227.483 148.637 227.316 148.77 227.254L150.43 226.471C150.563 226.409 150.717 226.475 150.775 226.618C150.833 226.761 150.772 226.928 150.64 226.991L148.979 227.773C148.945 227.789 148.91 227.796 148.875 227.796Z" fill="white"/>
<path d="M141.117 221.707C141.049 221.707 140.98 221.677 140.928 221.62C140.828 221.507 140.832 221.327 140.936 221.219L142.422 219.679C142.527 219.571 142.693 219.575 142.793 219.687C142.893 219.8 142.889 219.979 142.785 220.087L141.299 221.628C141.248 221.68 141.183 221.707 141.117 221.707Z" fill="white"/>
<path d="M145.76 224.655C145.673 224.655 145.587 224.608 145.538 224.521C145.461 224.388 145.499 224.214 145.622 224.131L147.373 222.955C147.495 222.873 147.657 222.914 147.733 223.047C147.81 223.179 147.772 223.354 147.649 223.437L145.898 224.612C145.855 224.641 145.807 224.655 145.76 224.655Z" fill="white"/>
<path d="M142.588 222.027C142.522 222.027 142.455 222 142.404 221.945C142.301 221.836 142.3 221.657 142.401 221.545L143.527 220.307C143.628 220.195 143.793 220.194 143.897 220.303C144 220.413 144.002 220.592 143.9 220.704L142.775 221.942C142.724 221.999 142.656 222.027 142.588 222.027Z" fill="white"/>
<path d="M143.59 223.01C143.517 223.01 143.444 222.977 143.393 222.913C143.297 222.796 143.308 222.617 143.417 222.514L144.781 221.226C144.89 221.123 145.056 221.135 145.151 221.253C145.246 221.371 145.235 221.55 145.126 221.652L143.762 222.94C143.713 222.987 143.651 223.01 143.59 223.01Z" fill="white"/>
<path d="M122.568 218.323C122.516 218.323 122.464 218.306 122.418 218.271C122.299 218.181 122.271 218.004 122.355 217.876L123.141 216.673C123.224 216.546 123.387 216.516 123.506 216.605C123.624 216.696 123.652 216.872 123.569 217L122.783 218.203C122.732 218.281 122.651 218.323 122.568 218.323Z" fill="white"/>
<path d="M121.521 217.651C121.463 217.651 121.406 217.63 121.357 217.589C121.244 217.491 121.226 217.313 121.316 217.191L122.233 215.952C122.324 215.831 122.488 215.81 122.602 215.908C122.714 216.006 122.733 216.184 122.642 216.306L121.726 217.545C121.674 217.614 121.598 217.651 121.521 217.651Z" fill="white"/>
<path d="M120.408 216.872C120.346 216.872 120.285 216.849 120.235 216.802C120.126 216.699 120.115 216.52 120.211 216.403L121.127 215.27C121.223 215.152 121.388 215.141 121.497 215.243C121.606 215.347 121.617 215.525 121.522 215.643L120.605 216.775C120.553 216.839 120.481 216.872 120.408 216.872Z" fill="white"/>
<path d="M119.426 216.2C119.365 216.2 119.305 216.177 119.255 216.131C119.145 216.03 119.132 215.851 119.227 215.732L120.209 214.494C120.303 214.375 120.469 214.362 120.578 214.463C120.688 214.565 120.701 214.743 120.607 214.862L119.624 216.101C119.573 216.166 119.499 216.2 119.426 216.2Z" fill="white"/>
<path d="M118.018 215.704C117.953 215.704 117.889 215.679 117.839 215.628C117.733 215.521 117.727 215.342 117.826 215.228L119.234 213.6C119.333 213.485 119.499 213.48 119.604 213.587C119.71 213.693 119.716 213.872 119.617 213.987L118.209 215.615C118.157 215.674 118.087 215.704 118.018 215.704Z" fill="white"/>
<path d="M115.693 212.13C115.629 212.13 115.565 212.105 115.514 212.054C115.409 211.948 115.403 211.769 115.501 211.654L116.385 210.628C116.484 210.514 116.649 210.507 116.755 210.614C116.861 210.72 116.867 210.899 116.769 211.014L115.885 212.04C115.833 212.1 115.763 212.13 115.693 212.13Z" fill="white"/>
<path d="M114.547 211.139C114.474 211.139 114.4 211.106 114.349 211.041C114.254 210.922 114.266 210.744 114.376 210.642L115.555 209.545C115.664 209.443 115.829 209.456 115.924 209.574C116.019 209.693 116.006 209.872 115.897 209.974L114.718 211.071C114.669 211.117 114.608 211.139 114.547 211.139Z" fill="white"/>
<path d="M114.089 210.149C114.019 210.149 113.949 210.118 113.897 210.059C113.799 209.945 113.804 209.766 113.91 209.659L114.925 208.632C115.03 208.526 115.196 208.532 115.295 208.646C115.394 208.76 115.388 208.939 115.283 209.046L114.268 210.072C114.217 210.123 114.153 210.149 114.089 210.149Z" fill="white"/>
<path d="M113.205 209.228C113.126 209.228 113.049 209.191 112.997 209.118C112.909 208.995 112.93 208.817 113.045 208.721L114.191 207.766C114.305 207.671 114.47 207.693 114.558 207.817C114.646 207.941 114.625 208.119 114.51 208.214L113.364 209.17C113.317 209.209 113.261 209.228 113.205 209.228Z" fill="white"/>
<path d="M111.47 207.247C111.394 207.247 111.319 207.212 111.268 207.144C111.175 207.024 111.191 206.845 111.302 206.746L112.645 205.543C112.756 205.442 112.921 205.459 113.013 205.58C113.106 205.7 113.09 205.879 112.979 205.978L111.637 207.181C111.588 207.225 111.528 207.247 111.47 207.247Z" fill="white"/>
<path d="M109.079 201.549C108.994 201.549 108.911 201.505 108.86 201.422C108.781 201.291 108.815 201.115 108.935 201.03L110.081 200.216C110.202 200.13 110.365 200.166 110.444 200.297C110.523 200.427 110.49 200.603 110.369 200.689L109.223 201.503C109.179 201.534 109.129 201.549 109.079 201.549Z" fill="white"/>
<path d="M108.49 200.488C108.404 200.488 108.319 200.442 108.269 200.357C108.191 200.225 108.227 200.05 108.349 199.966L109.528 199.152C109.649 199.068 109.812 199.106 109.889 199.238C109.967 199.37 109.932 199.545 109.81 199.629L108.631 200.443C108.587 200.473 108.538 200.488 108.49 200.488Z" fill="white"/>
<path d="M110.629 173.641C110.584 173.641 110.539 173.628 110.498 173.602L109.254 172.824C109.129 172.746 109.086 172.572 109.158 172.437C109.231 172.302 109.391 172.255 109.516 172.334L110.76 173.113C110.885 173.191 110.928 173.364 110.856 173.499C110.807 173.59 110.719 173.641 110.629 173.641Z" fill="white"/>
<path d="M111.567 172.815C111.523 172.815 111.479 172.803 111.438 172.777L110.062 171.928C109.937 171.85 109.893 171.678 109.965 171.542C110.037 171.406 110.196 171.358 110.322 171.437L111.697 172.286C111.823 172.364 111.867 172.536 111.795 172.672C111.747 172.764 111.658 172.815 111.567 172.815Z" fill="white"/>
<path d="M112.353 171.966C112.308 171.966 112.263 171.953 112.222 171.927L110.868 171.078C110.743 171 110.701 170.826 110.773 170.691C110.846 170.556 111.006 170.51 111.131 170.588L112.485 171.438C112.61 171.516 112.652 171.69 112.58 171.825C112.531 171.915 112.443 171.966 112.353 171.966Z" fill="white"/>
<path d="M114.514 169.96C114.471 169.96 114.428 169.949 114.388 169.925L113.122 169.17C112.995 169.094 112.949 168.922 113.019 168.785C113.089 168.649 113.248 168.599 113.375 168.674L114.641 169.429C114.767 169.505 114.813 169.677 114.744 169.814C114.696 169.907 114.606 169.96 114.514 169.96Z" fill="white"/>
<path d="M122.045 164.039C121.991 164.039 121.937 164.021 121.891 163.985L120.93 163.23C120.813 163.138 120.787 162.961 120.872 162.834C120.957 162.708 121.121 162.68 121.238 162.772L122.199 163.527C122.316 163.619 122.342 163.796 122.257 163.922C122.205 163.998 122.126 164.039 122.045 164.039Z" fill="white"/>
<path d="M122.94 163.284C122.887 163.284 122.835 163.267 122.789 163.232L121.676 162.383C121.557 162.292 121.529 162.116 121.613 161.988C121.696 161.861 121.859 161.83 121.978 161.92L123.091 162.769C123.209 162.859 123.237 163.036 123.154 163.164C123.103 163.242 123.022 163.284 122.94 163.284Z" fill="white"/>
<path d="M123.725 162.576C123.675 162.576 123.624 162.56 123.579 162.528L122.51 161.749C122.39 161.662 122.358 161.486 122.439 161.356C122.519 161.226 122.682 161.192 122.802 161.28L123.872 162.058C123.992 162.145 124.024 162.321 123.943 162.451C123.892 162.532 123.81 162.576 123.725 162.576Z" fill="white"/>
<path d="M125.254 161.255C125.192 161.255 125.13 161.232 125.081 161.185L123.837 160.005C123.728 159.902 123.717 159.723 123.812 159.606C123.908 159.488 124.074 159.477 124.182 159.579L125.426 160.759C125.535 160.862 125.546 161.041 125.45 161.159C125.399 161.222 125.326 161.255 125.254 161.255Z" fill="white"/>
<path d="M127.589 158.943C127.528 158.943 127.466 158.92 127.416 158.872L126.674 158.165C126.565 158.061 126.555 157.882 126.65 157.765C126.746 157.648 126.912 157.637 127.02 157.74L127.762 158.448C127.871 158.551 127.881 158.73 127.785 158.847C127.734 158.911 127.662 158.943 127.589 158.943Z" fill="white"/>
<path d="M128.855 157.528C128.799 157.528 128.743 157.508 128.695 157.468L127.734 156.666C127.62 156.571 127.599 156.393 127.687 156.269C127.775 156.146 127.94 156.123 128.055 156.219L129.015 157.02C129.13 157.116 129.151 157.294 129.062 157.418C129.011 157.49 128.933 157.528 128.855 157.528Z" fill="white"/>
<path d="M133.722 150.12C133.682 150.12 133.642 150.11 133.603 150.089L132.665 149.57C132.536 149.498 132.485 149.328 132.551 149.189C132.617 149.049 132.775 148.995 132.903 149.066L133.842 149.585C133.971 149.656 134.022 149.826 133.956 149.966C133.909 150.064 133.818 150.12 133.722 150.12Z" fill="white"/>
<path d="M134.29 148.964C134.254 148.964 134.218 148.956 134.184 148.94L133.005 148.373C132.873 148.31 132.813 148.142 132.872 147.999C132.931 147.857 133.086 147.792 133.218 147.856L134.396 148.422C134.529 148.485 134.588 148.653 134.53 148.796C134.486 148.901 134.391 148.964 134.29 148.964Z" fill="white"/>
<path d="M134.792 147.831C134.76 147.831 134.726 147.825 134.694 147.811L132.751 146.961C132.617 146.903 132.553 146.738 132.607 146.593C132.661 146.448 132.814 146.378 132.948 146.437L134.891 147.286C135.025 147.345 135.089 147.51 135.035 147.654C134.994 147.765 134.896 147.831 134.792 147.831Z" fill="white"/>
<path d="M135.185 146.675C135.154 146.675 135.123 146.67 135.092 146.657L133.891 146.162C133.756 146.106 133.688 145.942 133.74 145.796C133.791 145.65 133.944 145.577 134.078 145.632L135.278 146.128C135.414 146.184 135.481 146.347 135.43 146.493C135.39 146.606 135.291 146.675 135.185 146.675Z" fill="white"/>
<path d="M135.6 145.661C135.57 145.661 135.54 145.655 135.51 145.643L134.2 145.124C134.064 145.071 133.995 144.908 134.044 144.761C134.094 144.615 134.245 144.539 134.38 144.593L135.69 145.112C135.826 145.166 135.896 145.328 135.846 145.475C135.807 145.59 135.707 145.661 135.6 145.661Z" fill="white"/>
<path d="M136.037 144.411C136.008 144.411 135.979 144.406 135.951 144.395L134.62 143.9C134.483 143.849 134.41 143.688 134.457 143.54C134.504 143.392 134.654 143.314 134.79 143.365L136.122 143.86C136.259 143.911 136.331 144.072 136.284 144.22C136.247 144.337 136.145 144.411 136.037 144.411Z" fill="white"/>
<path d="M136.386 143.42C136.36 143.42 136.334 143.416 136.308 143.407L134.976 142.959C134.838 142.912 134.761 142.753 134.804 142.604C134.847 142.455 134.994 142.373 135.132 142.418L136.464 142.866C136.602 142.913 136.679 143.072 136.636 143.221C136.601 143.342 136.497 143.42 136.386 143.42Z" fill="white"/>
<path d="M136.67 142.358C136.646 142.358 136.623 142.355 136.599 142.348L134.395 141.687C134.255 141.645 134.174 141.489 134.212 141.339C134.251 141.188 134.396 141.1 134.535 141.142L136.739 141.802C136.879 141.844 136.96 142 136.922 142.151C136.89 142.276 136.784 142.358 136.67 142.358Z" fill="white"/>
<path d="M136.975 141.249C136.952 141.249 136.928 141.246 136.904 141.239L135.354 140.767C135.215 140.724 135.134 140.568 135.173 140.417C135.212 140.267 135.358 140.18 135.496 140.222L137.046 140.694C137.185 140.736 137.266 140.892 137.227 141.043C137.194 141.168 137.09 141.249 136.975 141.249Z" fill="white"/>
<path d="M138.547 127.661H136.713C136.568 127.661 136.451 127.534 136.451 127.377C136.451 127.221 136.568 127.094 136.713 127.094H138.547C138.691 127.094 138.809 127.221 138.809 127.377C138.809 127.534 138.691 127.661 138.547 127.661Z" fill="white"/>
<path d="M137.936 119.828C137.933 119.828 137.931 119.828 137.928 119.828L136.357 119.781C136.212 119.777 136.098 119.646 136.102 119.49C136.106 119.337 136.222 119.215 136.364 119.215C136.366 119.215 136.369 119.215 136.371 119.215L137.943 119.262C138.087 119.267 138.201 119.397 138.197 119.553C138.193 119.706 138.077 119.828 137.936 119.828Z" fill="white"/>
<path d="M137.914 118.531C137.911 118.531 137.908 118.531 137.905 118.53L135.962 118.46C135.818 118.454 135.705 118.324 135.709 118.167C135.714 118.011 135.846 117.885 135.98 117.894L137.923 117.965C138.067 117.97 138.18 118.101 138.175 118.257C138.171 118.41 138.054 118.531 137.914 118.531Z" fill="white"/>
<path d="M137.848 117.327C137.847 117.327 137.846 117.327 137.845 117.327L136.251 117.304C136.107 117.302 135.991 117.173 135.993 117.017C135.995 116.862 136.112 116.738 136.255 116.738C136.256 116.738 136.257 116.738 136.258 116.738L137.852 116.761C137.996 116.763 138.112 116.892 138.11 117.048C138.108 117.203 137.991 117.327 137.848 117.327Z" fill="white"/>
<path d="M137.805 116.195C137.804 116.195 137.802 116.195 137.801 116.195L136.164 116.172C136.02 116.169 135.904 116.041 135.906 115.885C135.908 115.73 136.025 115.605 136.168 115.605C136.169 115.605 136.17 115.605 136.171 115.605L137.808 115.629C137.953 115.631 138.068 115.759 138.067 115.916C138.064 116.071 137.948 116.195 137.805 116.195Z" fill="white"/>
<path d="M137.739 114.874C137.733 114.874 137.727 114.874 137.721 114.873L136.171 114.755C136.027 114.745 135.918 114.609 135.928 114.453C135.938 114.297 136.061 114.177 136.208 114.191L137.758 114.309C137.902 114.319 138.011 114.455 138 114.611C137.991 114.76 137.876 114.874 137.739 114.874Z" fill="white"/>
<path d="M137.87 112.892C137.861 112.892 137.852 112.892 137.842 112.89L135.572 112.631C135.429 112.615 135.324 112.475 135.34 112.32C135.355 112.164 135.481 112.051 135.628 112.068L137.898 112.328C138.041 112.344 138.146 112.483 138.13 112.639C138.116 112.784 138.003 112.892 137.87 112.892Z" fill="white"/>
<path d="M138.089 110.698C138.071 110.698 138.052 110.696 138.034 110.692L136.179 110.267C136.037 110.235 135.947 110.085 135.977 109.932C136.007 109.779 136.147 109.682 136.287 109.713L138.142 110.138C138.284 110.17 138.374 110.321 138.345 110.474C138.318 110.607 138.209 110.698 138.089 110.698Z" fill="white"/>
<path d="M138.306 109.566C138.282 109.566 138.258 109.562 138.233 109.554L136.356 108.965C136.217 108.921 136.137 108.764 136.178 108.614C136.218 108.464 136.362 108.377 136.502 108.421L138.379 109.011C138.518 109.055 138.598 109.212 138.558 109.362C138.525 109.485 138.42 109.566 138.306 109.566Z" fill="white"/>
<path d="M141.079 104.211C141.017 104.211 140.955 104.187 140.905 104.139L139.53 102.818C139.421 102.714 139.412 102.535 139.508 102.418C139.604 102.301 139.769 102.29 139.878 102.395L141.253 103.716C141.361 103.82 141.371 103.999 141.274 104.115C141.223 104.179 141.151 104.211 141.079 104.211Z" fill="white"/>
<path d="M141.777 103.55C141.707 103.55 141.638 103.52 141.587 103.461L140.452 102.164C140.352 102.05 140.357 101.871 140.462 101.764C140.567 101.656 140.733 101.661 140.832 101.775L141.967 103.072C142.067 103.186 142.062 103.365 141.957 103.473C141.906 103.524 141.842 103.55 141.777 103.55Z" fill="white"/>
<path d="M66.9443 187.076C73.4542 189.68 74.3189 190.392 88.2419 193.057C94.1699 194.192 99.161 194.811 102.221 195.75C103.329 195.821 109.876 199.284 110.672 197.195C111.266 195.637 106.114 193.19 104.897 192.32C106.113 192.548 113.871 197.189 114.779 194.798C115.722 192.314 107.857 189.033 106.834 188.488C106.93 188.48 117.237 192.808 118.287 190.547C119.307 188.35 110.524 185.058 108.587 184.055C110.396 184.604 118.495 187.113 119.158 185.36C120.183 182.652 111.095 179.573 104.753 177.691C107.264 175.591 108.259 173.986 107.68 173.292C107.387 172.94 103.936 173.272 99.3616 176.133C96.9948 175.434 83.6795 171.681 75.8376 169.181C70.4145 171.653 65.1072 174.03 59.6841 176.502C60.1386 182.956 64.4193 186.067 66.9443 187.076Z" fill="#BC8271"/>
<path d="M84.2392 170.361C82.6843 170.009 79.4372 169.04 79.0507 168.765L78.8605 166.336C78.433 160.877 77.1885 155.53 75.1758 150.501L67.5629 131.482C59.4933 133.977 54.117 140.919 53.4862 148.124C52.8538 163.381 50.9226 181.57 55.6531 184.721C60.8711 187.898 75.0819 191.973 89.1287 195.557L94.5419 172.909L84.2392 170.361Z" fill="white"/>
<path d="M94.5422 173.192C94.5215 173.192 94.5005 173.19 94.4798 173.184L78.5891 168.985C78.4484 168.948 78.3624 168.794 78.3968 168.643C78.4313 168.491 78.5743 168.397 78.7135 168.435L94.6042 172.634C94.7448 172.672 94.8308 172.825 94.7965 172.976C94.7671 173.106 94.6601 173.192 94.5422 173.192Z" fill="#004053"/>
<path d="M88.6924 195.982C88.6782 195.982 88.6638 195.981 88.6492 195.978C82.1694 194.811 74.0961 192.091 65.549 189.211C64.3975 188.823 63.2374 188.432 62.072 188.042C61.9338 187.996 61.8566 187.837 61.8994 187.688C61.9421 187.539 62.0884 187.455 62.227 187.502C63.3929 187.892 64.5529 188.283 65.7048 188.671C74.2345 191.545 82.2909 194.259 88.7351 195.42C88.8778 195.445 88.9742 195.591 88.9505 195.745C88.9293 195.884 88.8183 195.982 88.6924 195.982Z" fill="#004053"/>
<path d="M87.9934 194.661C87.953 194.661 87.9118 194.65 87.8734 194.629L82.6348 191.704C82.5307 191.646 82.4749 191.52 82.4982 191.396L86.1652 171.862C86.194 171.709 86.3302 171.612 86.4742 171.641C86.6159 171.672 86.7075 171.821 86.6789 171.975L83.0509 191.299L88.1138 194.126C88.2423 194.198 88.2926 194.369 88.2263 194.507C88.1798 194.605 88.0882 194.661 87.9934 194.661Z" fill="#E6D0BE"/>
<path d="M145.895 94.3746L145.405 96.7158C145.237 97.5215 145.716 98.319 146.465 98.4805C147.109 98.6192 147.752 98.2411 147.994 97.5818L148.772 95.2647L148.282 97.3371C147.589 100.011 150.045 100.921 151.063 98.1577L151.507 96.7513L150.879 99.7497C150.663 100.782 151.277 101.803 152.237 102.01C153.061 102.188 153.885 101.703 154.195 100.859L154.984 98.7128L154.804 99.8716C153.826 103.597 156.851 103.217 156.851 103.217L158.715 97.8879L154.295 94.2548L151.349 94.4672L146.492 92.2732L145.895 94.3746Z" fill="#BC8271"/>
<path d="M156.002 103.359C155.72 103.359 155.442 103.273 155.201 103.104C154.773 102.804 154.343 102.238 154.35 101.174C153.941 102.014 153.063 102.478 152.186 102.288C151.651 102.173 151.194 101.837 150.897 101.344C150.601 100.85 150.504 100.262 150.624 99.6876L150.688 99.3802C150.122 100.068 149.438 100.236 148.918 100.045C148.376 99.8465 147.909 99.2256 147.899 98.2533C147.524 98.6753 146.969 98.8779 146.414 98.7585C145.981 98.6652 145.611 98.3938 145.371 97.9941C145.131 97.5944 145.052 97.1183 145.15 96.6535L145.639 94.3124L146.051 92.8602C146.094 92.7111 146.238 92.6262 146.379 92.6727C146.517 92.7185 146.594 92.877 146.552 93.0266L146.145 94.4581L145.661 96.7784C145.595 97.093 145.648 97.4152 145.811 97.6858C145.973 97.9562 146.224 98.1401 146.516 98.2034C147.037 98.3154 147.555 98.0102 147.751 97.4777L148.525 95.1687C148.573 95.0268 148.716 94.95 148.849 94.9944C148.982 95.039 149.06 95.1888 149.025 95.3351L148.536 97.4074C148.227 98.6021 148.605 99.3324 149.086 99.5083C149.593 99.6936 150.354 99.3184 150.819 98.0533L151.259 96.6602C151.304 96.518 151.444 96.4376 151.578 96.4794C151.712 96.5203 151.793 96.6673 151.762 96.8141L151.135 99.8126C151.046 100.236 151.118 100.671 151.337 101.035C151.556 101.4 151.894 101.647 152.288 101.733C152.987 101.884 153.688 101.473 153.952 100.755L154.74 98.6085C154.79 98.4741 154.925 98.4009 155.054 98.4404C155.183 98.4791 155.264 98.6171 155.242 98.7597L155.063 99.9187C155.061 99.929 155.059 99.9391 155.056 99.9494C154.706 101.282 154.851 102.184 155.486 102.629C155.733 102.802 156.028 102.841 156.316 102.738C156.623 102.629 156.865 102.38 156.978 102.054L158.266 98.3715C158.318 98.2252 158.469 98.1516 158.604 98.2067C158.739 98.2621 158.808 98.4254 158.756 98.5716L157.468 102.254C157.298 102.741 156.937 103.113 156.479 103.276C156.322 103.332 156.161 103.359 156.002 103.359Z" fill="#004053"/>
<path d="M132.13 131.341C132.122 131.341 132.116 131.341 132.108 131.34L109.451 129.358C109.307 129.346 109.199 129.209 109.211 129.053C109.223 128.897 109.346 128.782 109.493 128.794L132.15 130.776C132.294 130.788 132.402 130.925 132.39 131.081C132.379 131.229 132.265 131.341 132.13 131.341Z" fill="#004053"/>
<path d="M84.1937 126.831L94.4472 134.357L85.8885 135.796L84.1937 126.831Z" fill="white"/>
<path d="M97.7644 127.72L92.6103 134.416L99.3988 134.808L97.7644 127.72Z" fill="white"/>
<path d="M92.7961 134.314L87.5646 131.13L89.6978 139.858L92.7961 134.314Z" fill="#004053"/>
<path d="M96.8084 139.803L92.7961 134.314L97.0116 130.362L96.8084 139.803Z" fill="#004053"/>
<path d="M91.7294 133.765L92.0849 135.851L93.8627 135.686L93.7611 133.381L91.7294 133.765Z" fill="#004053"/>
<path d="M94.425 130.014C91.137 133.109 85.733 132.822 84.3233 126.612L84.663 107.105L96.0687 107.046L95.4533 127.61C95.4258 128.528 95.0664 129.41 94.425 130.014Z" fill="#BC8271"/>
<path d="M91.6092 96.5161C92.0965 96.4456 96.772 95.847 99.713 99.2018C101.901 101.698 102.265 104.998 102.1 110.633C101.906 117.269 100.932 121.207 99.2133 122.582C96.4971 124.756 87.9948 120.466 84.6619 114.81C82.2562 110.726 82.334 105.343 84.5901 101.122C86.8402 96.9127 91.2982 96.5612 91.6092 96.5161Z" fill="#BC8271"/>
<path d="M95.5571 123.435C95.539 123.435 95.5206 123.433 95.5019 123.429C92.016 122.621 86.9484 119.451 84.4238 115.166C84.346 115.034 84.3821 114.859 84.5041 114.775C84.6256 114.691 84.788 114.729 84.8657 114.862C87.225 118.866 92.1822 122.081 95.6119 122.875C95.7534 122.908 95.8435 123.058 95.8129 123.211C95.7865 123.344 95.6779 123.435 95.5571 123.435Z" fill="#004053"/>
<path d="M92.3675 108.16C92.3675 108.16 92.9923 110.08 94.4704 111.53C94.7809 111.835 96.4632 108.539 96.0356 108.4C94.1624 107.788 92.3675 108.16 92.3675 108.16Z" fill="white"/>
<path d="M100.46 113.188C100.46 113.188 99.5454 110.376 97.3106 108.988C96.896 108.73 96.465 108.54 96.038 108.401C95.0766 109.056 94.4509 110.217 94.4646 111.523C94.777 111.83 95.1264 112.117 95.5171 112.36C97.7517 113.748 100.46 113.188 100.46 113.188Z" fill="#004053"/>
<path d="M98.5556 94.4333C96.4953 92.5692 93.4286 91.8518 90.4246 92.1237L93.8177 93.4728L88.3372 92.4756C85.9569 93.0704 83.7851 94.3003 82.4053 96.0876C78.7536 100.817 78.8097 105.439 83.556 116.003C84.0533 112.796 84.3046 108.02 86.3484 107.112C87.6696 106.524 88.9728 106.881 89.581 107.102C90.19 103.916 90.4699 100.93 93.1412 100.6C95.9736 100.249 100.454 103.293 100.744 103.601C100.813 102.942 102.221 97.7494 98.5556 94.4333Z" fill="white"/>
<path d="M88.6124 112.489C90.2141 111.59 90.7145 109.201 89.73 107.152C88.7455 105.104 86.6489 104.173 85.0471 105.072C83.4454 105.971 82.945 108.361 83.9295 110.409C84.914 112.457 87.0106 113.389 88.6124 112.489Z" fill="#BC8271"/>
<path d="M85.5687 110.255C85.4897 110.255 85.4114 110.216 85.36 110.143C85.2717 110.018 85.1922 109.882 85.1235 109.74C84.8529 109.177 84.7706 108.548 84.8915 107.971C85.0161 107.376 85.3399 106.905 85.8032 106.645C86.0385 106.513 86.2948 106.444 86.5649 106.439C86.7164 106.433 86.8284 106.562 86.8307 106.718C86.8327 106.874 86.7174 107.003 86.5725 107.005C86.3848 107.008 86.207 107.056 86.0446 107.147C85.7205 107.329 85.4923 107.666 85.4024 108.096C85.3087 108.543 85.3747 109.034 85.5883 109.478C85.6431 109.592 85.7065 109.7 85.7768 109.8C85.8643 109.925 85.842 110.102 85.7269 110.197C85.6794 110.236 85.6239 110.255 85.5687 110.255Z" fill="#004053"/>
<path d="M89.4501 104.903C89.9417 104.871 89.4256 110.934 91.129 113.29C93.5518 116.639 97.781 116.786 101.607 116.582C102.401 118.502 105.608 126.573 103.077 129C100.467 131.503 91.9699 127.795 88.7804 121.05C85.9638 115.094 88.6657 104.954 89.4501 104.903Z" fill="white"/>
<path d="M98.3796 119.348C98.0058 119.348 97.6409 119.204 97.3658 118.923C96.7616 118.306 96.9453 117.403 96.9535 117.365C96.9859 117.213 97.1254 117.117 97.2676 117.152C97.4085 117.187 97.4965 117.339 97.4641 117.492C97.4628 117.498 97.3398 118.117 97.7256 118.511C98.0348 118.827 98.5257 118.872 98.9191 118.623C99.044 118.543 99.2046 118.589 99.2776 118.724C99.3507 118.859 99.309 119.032 99.1842 119.111C98.9328 119.271 98.6537 119.348 98.3796 119.348Z" fill="#004053"/>
<path d="M101.655 111.185C103.054 113 104.243 114.104 103.807 115.143C103.238 116.502 101.193 116.532 101.069 116.511L101.655 111.185Z" fill="#BC8271"/>
<path d="M219.479 206.931L209.109 164.655L158.191 175.221L154.037 206.715L150.595 277.609C150.892 277.729 151.193 277.838 151.496 277.941C162.351 277.624 172.809 275.585 182.646 272.07L187.266 227.878L191.45 268.457C203.677 262.767 214.745 254.721 224.165 244.849L219.479 206.931Z" fill="#004053"/>
<path d="M248.209 168.71C254.023 154.372 234.305 126.864 214.638 115.629C209.061 112.443 199.994 109.662 194.076 109.825C186.916 110.023 182.551 110.108 182.551 110.108C178.947 109.388 162.597 110.467 156.009 115.676C137.15 130.586 156.761 140.185 156.761 140.185L155.368 198.494L220.822 207.504L213.563 155.329C213.563 155.329 242.431 182.958 248.209 168.71Z" fill="#004053"/>
<path d="M197.698 114.6H178.802V179.455H197.698V114.6Z" fill="#B2B2B2"/>
<path d="M206.692 209.114C204.934 209.114 203.254 208.445 201.901 207.194C200.377 205.785 199.464 203.817 199.33 201.654L198.609 189.97C198.607 189.949 198.608 189.928 198.612 189.907L207.065 133.343L200.196 127.218C200.099 127.132 200.073 126.983 200.133 126.864C200.193 126.744 200.325 126.689 200.444 126.731L208.053 129.412L205.213 113.701C205.185 113.548 205.278 113.399 205.42 113.369C205.562 113.339 205.7 113.439 205.727 113.593L208.652 129.777C208.67 129.875 208.638 129.976 208.569 130.043C208.499 130.109 208.402 130.131 208.314 130.1L201.596 127.732L207.514 133.01C207.586 133.074 207.621 133.174 207.606 133.273L199.133 189.965L199.853 201.616C199.977 203.626 200.825 205.454 202.241 206.764C203.657 208.073 205.461 208.695 207.316 208.518L220.798 207.222C220.945 207.209 221.07 207.324 221.082 207.479C221.095 207.635 220.989 207.772 220.845 207.786L207.362 209.082C207.138 209.104 206.915 209.114 206.692 209.114Z" fill="white"/>
<path d="M177.313 110.108L187.382 106.68L197.743 109.825L193.291 122.848L187.489 120.081L182.42 122.211L177.313 110.108Z" fill="white"/>
<path d="M216.645 198.654C213.456 206.272 211.189 210.284 210.439 212.031C209.036 215.296 202.847 228.293 206.125 229.482C207.671 230.042 209.297 225.481 210.039 223.769C209.515 225.854 206.343 233.641 208.395 234.2C210.507 234.775 213.93 225.197 213.994 225.129C213.727 226.239 209.696 234.163 211.888 234.955C213.999 235.717 217.079 227.048 217.669 225.983C217.497 227.439 216.099 230.685 217.476 231.18C219.321 231.844 220.904 226.918 221.531 226.031C222.779 223.13 232.454 207.457 232.454 207.457C233.287 204.365 221.554 196.027 216.645 198.654Z" fill="#E2A18D"/>
<path d="M210.631 219.799C210.6 219.799 210.568 219.793 210.537 219.78L209.169 219.209C209.034 219.152 208.967 218.988 209.019 218.843C209.071 218.697 209.224 218.624 209.358 218.681L210.725 219.252C210.86 219.308 210.927 219.472 210.875 219.618C210.835 219.73 210.736 219.799 210.631 219.799Z" fill="#004053"/>
<path d="M214.098 221.255C214.067 221.255 214.035 221.249 214.004 221.236L212.637 220.664C212.502 220.608 212.435 220.444 212.487 220.298C212.539 220.152 212.691 220.08 212.825 220.136L214.193 220.708C214.328 220.764 214.395 220.928 214.343 221.074C214.302 221.186 214.203 221.255 214.098 221.255Z" fill="#004053"/>
<path d="M217.614 222.779C217.582 222.779 217.55 222.773 217.52 222.76L216.152 222.188C216.017 222.132 215.95 221.968 216.002 221.822C216.054 221.677 216.207 221.604 216.341 221.66L217.708 222.232C217.843 222.288 217.91 222.452 217.858 222.598C217.818 222.71 217.719 222.779 217.614 222.779Z" fill="#004053"/>
<path d="M220.828 224.091C220.797 224.091 220.765 224.085 220.734 224.071L219.367 223.5C219.232 223.443 219.165 223.279 219.217 223.134C219.269 222.988 219.421 222.915 219.556 222.972L220.923 223.543C221.058 223.6 221.125 223.764 221.073 223.909C221.033 224.022 220.933 224.091 220.828 224.091Z" fill="#004053"/>
<path d="M211.886 197.497L233.502 208.421C233.502 208.421 258.251 161.875 245.764 154.744C232.174 146.982 211.886 197.497 211.886 197.497Z" fill="#004053"/>
<path d="M212.542 198.483C212.515 198.483 212.487 198.478 212.46 198.468C212.322 198.419 212.248 198.258 212.294 198.11C212.37 197.865 219.962 173.52 230.082 164.191C230.192 164.089 230.358 164.104 230.452 164.222C230.545 164.342 230.532 164.52 230.422 164.622C220.413 173.849 212.866 198.046 212.791 198.289C212.754 198.408 212.652 198.483 212.542 198.483Z" fill="white"/>
<path d="M234.807 205.89L232.755 210.373L212.412 198.341L214.158 193.245L234.807 205.89Z" fill="white"/>
<path d="M171.223 208.072C171.076 208.072 170.928 208.067 170.78 208.058L154.022 206.998C153.878 206.988 153.767 206.855 153.776 206.698C153.785 206.542 153.901 206.424 154.053 206.433L170.81 207.492C172.702 207.609 174.504 206.904 175.883 205.498C177.262 204.092 178.021 202.19 178.021 200.141V196.779L168.846 129.306C168.831 129.19 168.883 129.076 168.977 129.018L175.949 124.759L169.478 125.395C169.395 125.404 169.31 125.366 169.255 125.296C169.2 125.226 169.18 125.131 169.201 125.042L172.519 111.076C172.555 110.924 172.698 110.834 172.838 110.872C172.978 110.911 173.062 111.065 173.026 111.217L169.801 124.794L177.114 124.075C177.238 124.062 177.351 124.146 177.388 124.273C177.425 124.4 177.374 124.538 177.267 124.604L169.391 129.416L178.543 196.717C178.544 196.73 178.546 196.744 178.546 196.758V200.141C178.546 202.348 177.728 204.396 176.243 205.91C174.865 207.314 173.097 208.072 171.223 208.072Z" fill="white"/>
<path d="M178.786 120.689L187.441 132.851L197.743 121.244L198.093 188.338L178.71 188.149L178.786 120.689Z" fill="#8B865C"/>
<path d="M204.03 178.618C203.899 178.618 203.786 178.513 203.77 178.37C203.752 178.215 203.854 178.073 203.998 178.054L213.951 176.733C214.098 176.709 214.226 176.824 214.243 176.979C214.261 177.134 214.159 177.276 214.015 177.295L204.062 178.616C204.051 178.618 204.04 178.618 204.03 178.618Z" fill="white"/>
<path d="M137.228 216.206C137.727 224.55 137.473 229.243 137.571 231.166C137.753 234.761 138.148 247.816 141.559 247.199C143.167 246.908 142.414 243.617 142.325 241.73C142.769 243.835 143.434 251.712 145.488 251.162C147.602 250.597 146.38 241.012 146.407 240.919C146.654 242.034 146.941 250.304 149.22 249.889C151.415 249.489 149.964 241.045 150.022 239.805C150.503 241.177 151.195 248.453 152.625 248.19C154.542 247.838 153.284 238.986 153.451 237.884C153.291 234.69 155.01 215.941 155.01 215.941C154.399 212.788 140.417 211.394 137.228 216.206Z" fill="#E2A18D"/>
<path d="M139.541 238.148C139.411 238.148 139.298 238.043 139.281 237.899C139.264 237.744 139.367 237.603 139.51 237.584L140.965 237.394C141.109 237.377 141.239 237.486 141.257 237.641C141.274 237.796 141.172 237.937 141.028 237.956L139.573 238.146C139.562 238.148 139.552 238.148 139.541 238.148Z" fill="#004053"/>
<path d="M143.235 237.671C143.104 237.671 142.991 237.565 142.975 237.422C142.958 237.266 143.06 237.126 143.204 237.106L144.659 236.916C144.804 236.897 144.933 237.008 144.95 237.163C144.968 237.318 144.865 237.459 144.722 237.478L143.267 237.669C143.256 237.67 143.245 237.671 143.235 237.671Z" fill="#004053"/>
<path d="M147.001 237.229C146.87 237.229 146.757 237.124 146.741 236.98C146.723 236.825 146.826 236.684 146.969 236.665L148.424 236.474C148.568 236.458 148.699 236.566 148.716 236.722C148.733 236.877 148.631 237.018 148.487 237.037L147.032 237.227C147.022 237.229 147.011 237.229 147.001 237.229Z" fill="#004053"/>
<path d="M150.408 236.753C150.277 236.753 150.164 236.647 150.148 236.504C150.131 236.348 150.233 236.207 150.377 236.188L151.832 235.998C151.978 235.981 152.107 236.09 152.124 236.245C152.141 236.4 152.039 236.541 151.895 236.56L150.44 236.751C150.429 236.752 150.418 236.753 150.408 236.753Z" fill="#004053"/>
<path d="M152.364 226.179L154.438 228.624C154.882 229.389 155.152 230.258 155.224 231.158L155.458 234.064C155.495 234.53 155.655 234.98 155.937 235.334C156.828 236.452 157.739 236.048 158.191 233.398C158.675 232.42 158.708 230.724 158.796 228.939C158.857 227.69 158.87 226.107 158.257 225.046C157.337 223.456 155.223 218.936 153.87 217.12L152.364 226.179Z" fill="#E2A18D"/>
<path d="M161.296 178.654L155.167 220.266L134.275 217.566L137.368 172.107L161.296 178.654Z" fill="#004053"/>
<path d="M134.153 218.514L155.607 220.291L156.062 213.866L134.609 212.089L134.153 218.514Z" fill="white"/>
<path d="M172.205 111.312L165.984 111.595C159.436 112.727 154.853 115.377 151.818 117.563C147.103 120.961 140.596 144.787 138.721 158.896C137.034 171.59 136.8 183.148 136.8 183.148L156.358 195.888L165.067 129.926L172.205 111.312Z" fill="#004053"/>
<path d="M156.059 214.158C156.057 214.158 156.055 214.158 156.052 214.158C155.908 214.154 155.794 214.024 155.797 213.868L157.319 149.641C157.322 149.487 157.439 149.365 157.581 149.365C157.583 149.365 157.585 149.365 157.587 149.365C157.732 149.369 157.846 149.499 157.842 149.655L156.321 213.882C156.317 214.036 156.201 214.158 156.059 214.158Z" fill="white"/>
<path d="M159.326 178.996C159.186 178.996 159.07 178.876 159.065 178.724C159.059 178.568 159.172 178.436 159.316 178.43L172.762 177.864C172.908 177.857 173.029 177.979 173.034 178.135C173.04 178.291 172.927 178.423 172.783 178.429L159.337 178.995C159.333 178.996 159.33 178.996 159.326 178.996Z" fill="white"/>
<path d="M185.302 188.102C185.301 188.102 185.301 188.102 185.301 188.102C185.156 188.102 185.039 187.975 185.04 187.818L185.171 135.162C185.171 135.091 185.195 135.024 185.239 134.972L191.351 127.753C191.449 127.637 191.615 127.629 191.721 127.735C191.828 127.84 191.835 128.02 191.737 128.135L185.694 135.273L185.563 187.82C185.563 187.976 185.446 188.102 185.302 188.102Z" fill="white"/>
<path d="M188.268 137.662C188.677 137.22 188.677 136.502 188.268 136.06C187.859 135.617 187.195 135.617 186.785 136.06C186.376 136.502 186.376 137.22 186.785 137.662C187.195 138.105 187.859 138.105 188.268 137.662Z" fill="#84524D"/>
<path d="M187.87 143.711C188.405 143.471 188.659 142.808 188.438 142.23C188.216 141.652 187.603 141.377 187.068 141.617C186.533 141.856 186.279 142.519 186.501 143.097C186.722 143.676 187.336 143.95 187.87 143.711Z" fill="#84524D"/>
<path d="M187.332 150.238C187.911 150.238 188.38 149.73 188.38 149.104C188.38 148.478 187.911 147.971 187.332 147.971C186.753 147.971 186.283 148.478 186.283 149.104C186.283 149.73 186.753 150.238 187.332 150.238Z" fill="#84524D"/>
<path d="M187.266 156.041C187.845 156.041 188.315 155.534 188.315 154.908C188.315 154.282 187.845 153.775 187.266 153.775C186.687 153.775 186.218 154.282 186.218 154.908C186.218 155.534 186.687 156.041 187.266 156.041Z" fill="#84524D"/>
<path d="M187.398 161.632C187.977 161.632 188.446 161.125 188.446 160.499C188.446 159.873 187.977 159.366 187.398 159.366C186.819 159.366 186.349 159.873 186.349 160.499C186.349 161.125 186.819 161.632 187.398 161.632Z" fill="#84524D"/>
<path d="M187.74 167.35C188.275 167.111 188.529 166.448 188.307 165.869C188.086 165.291 187.472 165.016 186.937 165.256C186.402 165.495 186.148 166.158 186.37 166.737C186.592 167.315 187.205 167.59 187.74 167.35Z" fill="#84524D"/>
<path d="M187.201 173.876C187.78 173.876 188.249 173.369 188.249 172.743C188.249 172.117 187.78 171.61 187.201 171.61C186.621 171.61 186.152 172.117 186.152 172.743C186.152 173.369 186.621 173.876 187.201 173.876Z" fill="#84524D"/>
<path d="M187.135 179.68C187.714 179.68 188.184 179.173 188.184 178.547C188.184 177.921 187.714 177.413 187.135 177.413C186.556 177.413 186.087 177.921 186.087 178.547C186.087 179.173 186.556 179.68 187.135 179.68Z" fill="#84524D"/>
<path d="M188.136 185.647C188.546 185.205 188.546 184.487 188.136 184.044C187.727 183.602 187.063 183.602 186.653 184.044C186.244 184.487 186.244 185.205 186.653 185.647C187.063 186.09 187.727 186.09 188.136 185.647Z" fill="#84524D"/>
<path d="M193.066 98.9231C197.502 96.4839 199.424 90.9055 199.742 85.1012C199.98 80.7714 197.912 77.8294 194.889 77.8571C192.809 74.1658 185.002 73.4442 181.716 76.1086C175.676 81.0041 176.038 95.0833 182.794 99.256C187.256 102.012 192.663 99.1444 193.066 98.9231Z" fill="#84524D"/>
<path d="M187.489 120.081L181.542 112.978L181.045 101.32L193.723 100.731L194.213 112.402L187.489 120.081Z" fill="#E2A18D"/>
<path d="M196.857 93.4455C196.626 98.7451 193.712 107.002 187.382 106.68C181.052 106.358 178.869 97.8411 179.1 92.5415C179.225 89.6798 179.84 84.8937 181.766 83.6025C183.406 82.5024 186.352 85.486 188.608 85.6008C191.059 85.7256 193.336 82.9092 194.857 84.3797C196.378 85.85 196.972 90.7957 196.857 93.4455Z" fill="#E2A18D"/>
<path d="M179.942 99.6107C181.235 99.0682 181.672 96.9295 180.919 94.8338C180.166 92.7382 178.508 91.4791 177.215 92.0216C175.923 92.5641 175.485 94.7028 176.238 96.7985C176.991 98.8942 178.649 100.153 179.942 99.6107Z" fill="#E2A18D"/>
<path d="M199.304 97.971C200.236 95.9612 199.986 93.7875 198.747 93.116C197.507 92.4444 195.747 93.5293 194.815 95.5391C193.883 97.5489 194.132 99.7225 195.372 100.394C196.611 101.066 198.372 99.9808 199.304 97.971Z" fill="#E2A18D"/>
<path d="M197.263 98.8793C197.172 98.8793 197.083 98.8282 197.035 98.7364C196.963 98.6007 197.007 98.4278 197.133 98.3504C197.488 98.1312 197.804 97.7499 198.024 97.2764C198.244 96.8031 198.337 96.3008 198.287 95.8623C198.241 95.466 198.083 95.1756 197.841 95.0445C197.794 95.0193 197.744 94.9997 197.692 94.987C197.551 94.9522 197.463 94.8004 197.495 94.648C197.527 94.4955 197.668 94.3989 197.809 94.4351C197.901 94.4578 197.991 94.4926 198.076 94.5382C198.479 94.7569 198.739 95.2023 198.806 95.7926C198.869 96.3408 198.758 96.9579 198.492 97.5301C198.227 98.1024 197.836 98.5682 197.392 98.8419C197.351 98.8675 197.307 98.8793 197.263 98.8793Z" fill="#004053"/>
<path d="M178.283 97.9128C178.231 97.9128 178.178 97.8963 178.133 97.8613C177.715 97.5437 177.366 97.0402 177.152 96.4437C176.937 95.8471 176.88 95.2214 176.99 94.682C177.109 94.1011 177.406 93.684 177.827 93.5073C177.915 93.4702 178.008 93.4448 178.102 93.4318C178.245 93.41 178.376 93.5208 178.395 93.6759C178.414 93.831 178.313 93.9729 178.169 93.993C178.117 94.0005 178.066 94.0146 178.016 94.0353C177.764 94.141 177.582 94.4141 177.502 94.8041C177.414 95.2354 177.463 95.7449 177.64 96.2385C177.818 96.7322 178.1 97.144 178.434 97.398C178.552 97.4878 178.581 97.6645 178.498 97.7925C178.447 97.8708 178.365 97.9128 178.283 97.9128Z" fill="#004053"/>
<path d="M195.838 99.1931C195.809 99.1931 195.779 99.1878 195.75 99.1768C195.614 99.1245 195.543 98.9628 195.591 98.8155C196.053 97.4069 196.374 95.8941 196.521 94.4405C196.537 94.2849 196.663 94.172 196.81 94.1897C196.954 94.2068 197.058 94.3465 197.042 94.5019C196.891 95.9984 196.56 97.5554 196.085 99.0046C196.047 99.1207 195.946 99.1931 195.838 99.1931Z" fill="#004053"/>
<path d="M179.765 98.878C179.65 98.878 179.545 98.7965 179.513 98.6715C179.054 96.9085 178.809 94.9545 178.822 93.1696C178.824 93.014 178.941 92.8887 179.084 92.8887C179.085 92.8887 179.086 92.8887 179.086 92.8887C179.231 92.8901 179.348 93.0177 179.346 93.174C179.333 94.9071 179.572 96.805 180.017 98.5182C180.056 98.6686 179.975 98.8251 179.836 98.8674C179.812 98.8747 179.788 98.878 179.765 98.878Z" fill="#004053"/>
<path d="M195.995 93.5724C195.995 93.5724 195.559 94.2832 194.786 94.9811C194.271 95.445 192.652 95.421 192.652 95.421C192.652 95.421 190.853 96.3439 190.112 96.1699C189.37 95.9958 188.874 95.7465 188.874 95.7465C188.874 95.7465 189.113 95.3561 189.552 94.8701C190.098 94.2641 192.382 94.1722 192.382 94.1722C192.382 94.1722 193.877 92.963 194.596 93.1132C195.426 93.2865 195.995 93.5724 195.995 93.5724Z" fill="white"/>
<path d="M192.047 93.1759C190.959 93.5078 190.106 94.2579 189.559 94.8628C189.639 95.3428 189.829 95.7931 190.111 96.1698C190.852 96.3439 191.839 96.4429 192.822 96.1427C193.613 95.9012 194.278 95.438 194.794 94.9707C194.926 94.3256 194.846 93.6774 194.599 93.1153C193.878 92.9642 192.962 92.8965 192.047 93.1759Z" fill="#004053"/>
<path d="M179.747 92.7451C179.747 92.7451 180.173 93.6086 180.985 94.4367C181.435 94.895 182.954 94.755 182.954 94.755C182.954 94.755 184.505 96.0254 185.238 95.9458C186.067 95.8557 186.647 95.6331 186.647 95.6331C186.647 95.6331 186.447 95.2289 186.061 94.7085C185.57 94.0471 183.436 93.5892 183.436 93.5892C183.436 93.5892 181.887 92.353 181.153 92.4327C180.326 92.5229 179.747 92.7451 179.747 92.7451Z" fill="white"/>
<path d="M186.064 94.7126C185.573 94.0506 184.78 93.1988 183.712 92.7515C182.82 92.3783 181.896 92.3544 181.164 92.4332C180.92 92.9802 180.83 93.613 180.95 94.2541C180.961 94.3184 180.978 94.3803 180.994 94.4426C181.442 94.8988 182.006 95.3438 182.681 95.6265C183.574 95.9999 184.497 96.0238 185.23 95.9448C185.605 95.6218 185.893 95.1951 186.064 94.7126Z" fill="#004053"/>
<path d="M187.687 107.139C187.572 107.139 187.457 107.136 187.34 107.128C184.844 106.964 182.947 105.084 181.573 103.464C181.475 103.349 181.482 103.17 181.589 103.064C181.695 102.958 181.861 102.966 181.959 103.082C183.348 104.718 185.077 106.412 187.372 106.563C189.67 106.715 191.606 105.159 193.035 103.787C193.142 103.684 193.308 103.694 193.405 103.811C193.5 103.928 193.491 104.107 193.383 104.211C191.948 105.587 190.021 107.139 187.687 107.139Z" fill="#004053"/>
<path d="M187.876 99.7891C187.778 99.7891 187.684 99.7297 187.639 99.628C187.577 99.487 187.632 99.318 187.762 99.2506C188 99.1281 188.293 98.9296 188.339 98.6805C188.366 98.5395 188.31 98.4182 188.193 98.1787C188.1 97.991 187.985 97.7575 187.908 97.447C187.794 96.9931 187.791 96.5079 187.9 96.0047C187.932 95.8527 188.074 95.7578 188.214 95.7935C188.355 95.8289 188.443 95.9812 188.41 96.1335C188.321 96.5441 188.322 96.9363 188.413 97.2988C188.476 97.5479 188.567 97.7337 188.655 97.9133C188.784 98.1754 188.917 98.4466 188.853 98.7925C188.781 99.1763 188.49 99.5024 187.988 99.7615C187.952 99.7803 187.913 99.7891 187.876 99.7891Z" fill="#004053"/>
<path d="M187.28 101.89C186.754 101.89 186.209 101.593 185.871 101.115C185.652 100.807 185.529 100.437 185.523 100.073C185.52 99.9173 185.635 99.7881 185.78 99.7853C185.92 99.7793 186.044 99.9069 186.047 100.063C186.051 100.307 186.136 100.558 186.287 100.771C186.541 101.13 186.954 101.343 187.337 101.322C187.48 101.316 187.605 101.432 187.614 101.588C187.622 101.744 187.512 101.878 187.368 101.887C187.338 101.89 187.309 101.89 187.28 101.89Z" fill="#004053"/>
<path d="M194.492 82.2003C194.408 82.2003 194.325 82.1569 194.275 82.0761C193.797 81.3147 193.227 80.6551 192.58 80.1157C188.996 77.1304 184.114 78.5758 182.703 79.0895C182.565 79.1406 182.417 79.06 182.371 78.9117C182.324 78.7635 182.398 78.6029 182.535 78.5531C184.008 78.0162 189.11 76.5102 192.9 79.6672C193.591 80.2433 194.199 80.947 194.708 81.7581C194.79 81.8875 194.758 82.0635 194.639 82.1515C194.594 82.1845 194.543 82.2003 194.492 82.2003Z" fill="#004053"/>
<path d="M180.8 82.7493C180.71 82.7493 180.622 82.699 180.574 82.6086C180.501 82.4734 180.543 82.3 180.668 82.2216C182.154 81.288 187.381 78.395 192.265 80.3654C193.158 80.7257 193.99 81.2326 194.74 81.8727C194.853 81.9695 194.873 82.1475 194.783 82.2702C194.693 82.393 194.529 82.4143 194.415 82.3167C193.709 81.7135 192.923 81.2355 192.082 80.8957C187.412 79.0125 182.367 81.8092 180.932 82.711C180.89 82.7369 180.845 82.7493 180.8 82.7493Z" fill="#004053"/>
<path d="M187.489 120.081L181.242 115.629L182.517 125.104L187.489 120.081Z" fill="#776E42"/>
<path d="M193.028 115.912L187.489 120.081L193.07 124.449L193.028 115.912Z" fill="#776E42"/>
<path d="M200.133 65.2477L221.716 77.856C224.748 77.5444 228.631 78.4841 232.405 80.6843L233.741 78.0131L193.734 54.6422L200.133 65.2477Z" fill="#D3BBA3"/>
<path d="M248.474 82.377C246.116 87.0908 240.65 88.8529 236.289 86.3052C231.928 83.7575 230.297 77.8498 232.655 73.1361C235.012 68.4224 240.478 66.6603 244.839 69.2081C249.2 71.7557 250.831 77.6633 248.474 82.377ZM234.919 74.4587C233.236 77.8231 234.4 82.0396 237.513 83.858C240.626 85.6764 244.527 84.4186 246.21 81.0543C247.892 77.6898 246.728 73.4734 243.616 71.655C240.503 69.8365 236.601 71.0942 234.919 74.4587Z" fill="#8B865C"/>
<path d="M210.737 54.1432L221.714 77.8575C221.33 81.1231 222.076 85.3482 223.991 89.4945L221.479 90.853L201.132 46.8955L210.737 54.1432Z" fill="#D3BBA3"/>
<path d="M221.714 78.1407C221.618 78.1407 221.526 78.0834 221.48 77.9841L217.15 68.6313C217.086 68.4914 217.138 68.3214 217.267 68.2515C217.397 68.1818 217.554 68.2383 217.619 68.3781L221.948 77.7309C222.013 77.8707 221.96 78.0409 221.831 78.1107C221.794 78.131 221.754 78.1407 221.714 78.1407Z" fill="#004053"/>
<path d="M213.046 72.918C212.95 72.918 212.858 72.8607 212.812 72.7615L208.526 63.5033C208.462 63.3633 208.514 63.1933 208.643 63.1235C208.773 63.0542 208.93 63.1103 208.995 63.2501L213.28 72.5083C213.345 72.6481 213.293 72.8182 213.163 72.8881C213.126 72.9083 213.086 72.918 213.046 72.918Z" fill="#004053"/>
<path d="M228.928 102.855C228.058 104.595 226.719 106.003 225.048 106.906C222.901 108.067 220.463 108.255 218.185 107.435C215.906 106.615 214.06 104.885 212.985 102.563C211.911 100.242 211.737 97.6075 212.496 95.1448C213.255 92.6827 214.855 90.6865 217.003 89.5252C221.437 87.1277 226.848 89.076 229.067 93.8678C230.141 96.1891 230.315 98.8238 229.556 101.286C229.387 101.834 229.177 102.358 228.928 102.855ZM215.385 94.904C215.208 95.2589 215.058 95.6331 214.937 96.0238C214.396 97.7816 214.52 99.6619 215.287 101.319C216.87 104.739 220.732 106.129 223.897 104.418C227.061 102.707 228.348 98.5327 226.765 95.1124C225.998 93.4557 224.68 92.2207 223.054 91.6352C221.427 91.0499 219.688 91.1839 218.155 92.0127C216.962 92.6576 216.006 93.6625 215.385 94.904Z" fill="#8B865C"/>
<path d="M215.808 70.038C215.853 70.5473 215.507 70.9994 215.036 71.0478C214.564 71.0962 214.146 70.7226 214.101 70.2132C214.057 69.7039 214.402 69.2518 214.874 69.2034C215.345 69.155 215.763 69.5286 215.808 70.038Z" fill="#004053"/>
</g>
<defs>
<clipPath id="clip0_21_1032">
<rect width="297" height="321" fill="white"/>
</clipPath>
</defs>
</svg>
